<svg version="1.1" viewBox="0.0 0.0 100.0 100.0" fill="none" stroke="none" stroke-linecap="square" stroke-miterlimit="10" xmlns:xlink="http://www.w3.org/1999/xlink" xmlns="http://www.w3.org/2000/svg"><clipPath id="p.0"><path d="m0 0l100.0 0l0 100.0l-100.0 0l0 -100.0z" clip-rule="nonzero"/></clipPath><g clip-path="url(#p.0)"><path fill="#000000" fill-opacity="0.0" d="m0 0l100.0 0l0 100.0l-100.0 0z" fill-rule="evenodd"/><path fill="#ff3300" d="m5.545932 70.74278l85.35433 0l0 12.976379l-85.35433 0z" fill-rule="evenodd"/><path fill="#ff3300" d="m52.952755 35.90026l0 0c0 -4.3834877 3.7932434 -7.937006 8.472443 -7.937006l0 0c4.6791954 0 8.472439 3.5535183 8.472439 7.937006l0 0c0 4.3834915 -3.7932434 7.937008 -8.472439 7.937008l0 0c-4.679199 0 -8.472443 -3.5535164 -8.472443 -7.937008z" fill-rule="evenodd"/></g></svg>